<svg xmlns="http://www.w3.org/2000/svg" xmlns:xlink="http://www.w3.org/1999/xlink" viewBox="0 0 350 330"
     style="background: #000">
  <g>
    <g id="dirigible-cabin">
      <animateTransform attributeName="transform" type="skewX" repeatCount="indefinite" dur="2s" values="0; 12;0"/>
    <!--  <animateTransform additive="sum" attributeName="transform" type="skewY" repeatCount="indefinite" dur="2s" values="0; 0;0"/>-->
      <animateTransform additive="sum" attributeName="transform" type="translate" repeatCount="indefinite" dur="2s"
                        values="0,0; -45, -2; 0,0;"/>
      <path d="M175.44,249.28h48.36a13.27,13.27,0,0,0,13-10.65l3.74-18.32H172.36v25.89A3.09,3.09,0,0,0,175.44,249.28Z"
            fill="none" stroke="#fff" stroke-linecap="round" stroke-linejoin="round" stroke-width="2"/>
      <path d="M235.79,241.69h-9.22a8.31,8.31,0,0,1-8.28-8.31V220.31" fill="none" stroke="#fff" stroke-linecap="round"
            stroke-miterlimit="10" stroke-width="2"/>
      <path
        d="M204.25,231.88h-2.05a3.45,3.45,0,0,0-3.43,3.45v2.92a3.45,3.45,0,0,0,3.43,3.45h2.05a3.45,3.45,0,0,0,3.43-3.45v-2.92A3.44,3.44,0,0,0,204.25,231.88Z"
        fill="none" stroke="#fff" stroke-linecap="round" stroke-linejoin="round" stroke-width="2"/>
      <path
        d="M185.64,231.88h-2.05a3.45,3.45,0,0,0-3.43,3.45v2.92a3.45,3.45,0,0,0,3.43,3.45h2.05a3.45,3.45,0,0,0,3.43-3.45v-2.92A3.45,3.45,0,0,0,185.64,231.88Z"
        fill="none" stroke="#fff" stroke-linecap="round" stroke-linejoin="round" stroke-width="2"/>
    </g>
    <g id="top-wing-back">
      <animateMotion values="0,3; 0,-3; 0,3;" dur="2s" repeatCount="indefinite"></animateMotion>
      <path
        d="M123.23,173.34h9.16a3.29,3.29,0,0,1,3.29,3.3v5.71a3.29,3.29,0,0,1-3.29,3.3H115.57a1.32,1.32,0,0,1-1.32-1.32v-2a9,9,0,0,1,9-9"
        fill="#068e4d"/>
      <path
        d="M123.23,173.34h9.16a3.29,3.29,0,0,1,3.29,3.3v5.71a3.29,3.29,0,0,1-3.29,3.3H115.57a1.32,1.32,0,0,1-1.32-1.32v-2A9,9,0,0,1,123.23,173.34Z"
        fill="none" stroke="#fff" stroke-linecap="round" stroke-linejoin="round" stroke-width="2"/>
    </g>
    <g id="bottom-wing-back">
      <animateMotion values="0,3; 0,-3; 0,3;" dur="2s" repeatCount="indefinite"></animateMotion>
      <path
        d="M123.23,207.39h9.16a3.29,3.29,0,0,0,3.29-3.3v-5.71a3.29,3.29,0,0,0-3.29-3.3H115.57a1.32,1.32,0,0,0-1.32,1.32v2a9,9,0,0,0,9,9"
        fill="#068e4d"/>
      <path
        d="M123.23,207.39h9.16a3.29,3.29,0,0,0,3.29-3.3v-5.71a3.29,3.29,0,0,0-3.29-3.3H115.57a1.32,1.32,0,0,0-1.32,1.32v2A9,9,0,0,0,123.23,207.39Z"
        fill="none" stroke="#fff" stroke-linecap="round" stroke-linejoin="round" stroke-width="2"/>
    </g>
    <path
      d="M205,227.08c43.38,0,74.86-15.55,74.86-37s-31.48-37-74.86-37c-27.94,0-55.36,13.53-73.46,24.87a14.3,14.3,0,0,0,0,24.21c18.09,11.33,45.52,24.87,73.46,24.87"
      fill="#068e4d"/>
    <path
      d="M205,227.08c43.38,0,74.86-15.55,74.86-37s-31.48-37-74.86-37c-27.94,0-55.36,13.53-73.46,24.87a14.3,14.3,0,0,0,0,24.21C149.63,213.54,177.06,227.08,205,227.08Z"
      fill="none" stroke="#fff" stroke-width="2"/>
    <path
      d="M204.888 180.26C176.658 180.26 148.818 183.02 132.078 187.26C128.128 188.26 126.088 188.43 126.008 190.11C125.926 187.839 126.444 185.588 127.51 183.581C128.576 181.574 130.151 179.884 132.078 178.68C148.818 168.18 176.658 154 204.888 154C249.698 154 278.528 170 278.528 189.75C278.528 189.87 278.528 189.99 278.528 190.12C278.158 182.17 249.418 180.26 204.888 180.26Z"
      fill="#36E69A"/>
    <path
      d="M132.18,195.12c16.74,4.27,44.58,10,72.81,10,44.14,0,72.75-6.32,73.6-14.18-0.86,19.34-29.45,34.86-73.6,34.86-28.23,0-56.07-14.19-72.81-24.68a12.88,12.88,0,0,1-6-10.18c0.26,1.61,2.26,3.18,6,4.14"
      fill="#068e4d"/>

    <g id="front-ellipse">
      <path
        d="M132.013 186.323C148.818 181.915 176.766 176 205.105 176C249.807 176 278.649 182.638 279 190.845C279 191.021 279 191.196 279 191.372C278.147 199.486 249.436 206 205.115 206C176.776 206 148.828 200.054 132.023 195.677C128.219 194.644 126.211 193.065 126 191.413V190.886C126.131 189.142 128.158 187.418 132.124 186.375"
        fill="#25B774">
        <animate dur="2s" repeatCount="indefinite"
                 calcMode="paced"
                 attributeName="d"
                 values="M 132.013 186.5 C 140.416 184.365 151.604 181.365 164.234 178.899 C 176.864 176.433 190.935 174.5 205.105 174.5 C 249.807 174.5 278.649 182.93 279 190.88 C 279 191.05 279 191.22 279 191.39 C 278.147 199.25 249.426 201.5 205.105 201.5 C 176.766 201.5 148.828 199.8 132.023 195.56 C 128.219 194.56 126.211 193.03 126 191.43 L 126 190.92 C 126.131 189.23 128.158 187.56 132.124 186.55;M 132.124 186.05 C 132.124 186.05 132.124 186.05 132.124 186.05 C 148.928 181.78 176.776 180.5 205.115 180.5 C 249.817 180.5 278.649 182.137 279 190.087 C 279 190.257 279 190.427 279 190.597 C 278.147 198.457 249.436 208 205.115 208 C 176.776 208 148.828 199.007 132.023 194.767 C 128.219 193.767 126.211 192.237 126 190.637 L 126 190.127 C 126.131 188.437 128.158 187.06 132.124 186.05;M 132.013 186.5 C 140.416 184.365 151.604 181.365 164.234 178.899 C 176.864 176.433 190.935 174.5 205.105 174.5 C 249.807 174.5 278.649 182.93 279 190.88 C 279 191.05 279 191.22 279 191.39 C 278.147 199.25 249.426 201.5 205.105 201.5 C 176.766 201.5 148.828 199.8 132.023 195.56 C 128.219 194.56 126.211 193.03 126 191.43 L 126 190.92 C 126.131 189.23 128.158 187.56 132.124 186.55"/>
      </path>
    </g>


    <g id="top-wing-front">
      <animateMotion values="0,-3; 0,3; 0,-3;" dur="2s" repeatCount="indefinite"></animateMotion>
      <path
        d="M123.23,173.34h9.16a3.29,3.29,0,0,1,3.29,3.3v5.71a3.29,3.29,0,0,1-3.29,3.3H115.57a1.32,1.32,0,0,1-1.32-1.32v-2a9,9,0,0,1,9-9"
        fill="#068e4d"/>
      <path
        d="M123.23,173.34h9.16a3.29,3.29,0,0,1,3.29,3.3v5.71a3.29,3.29,0,0,1-3.29,3.3H115.57a1.32,1.32,0,0,1-1.32-1.32v-2A9,9,0,0,1,123.23,173.34Z"
        fill="none" stroke="#fff" stroke-linecap="round" stroke-linejoin="round" stroke-width="2"/>
    </g>
    <g id="bottom-wing-front">
      <animateMotion values="0,-3; 0,3; 0,-3;" dur="2s" repeatCount="indefinite"></animateMotion>
      <path
        d="M123.23,207.39h9.16a3.29,3.29,0,0,0,3.29-3.3v-5.71a3.29,3.29,0,0,0-3.29-3.3H115.57a1.32,1.32,0,0,0-1.32,1.32v2a9,9,0,0,0,9,9"
        fill="#068e4d"/>
      <path
        d="M123.23,207.39h9.16a3.29,3.29,0,0,0,3.29-3.3v-5.71a3.29,3.29,0,0,0-3.29-3.3H115.57a1.32,1.32,0,0,0-1.32,1.32v2A9,9,0,0,0,123.23,207.39Z"
        fill="none" stroke="#fff" stroke-linecap="round" stroke-linejoin="round" stroke-width="2"/>
    </g>
  </g>
  <line x1="68.95" y1="107.8" x2="131.86" y2="107.8" fill="none" stroke="#fff" stroke-linecap="round"
        stroke-miterlimit="10" stroke-width="2"/>
  <g>
    <path d="M41.77,97.54H77.06a12.4,12.4,0,1,1,24.8,0h17.93" fill="none" stroke="#fff" stroke-linecap="round"
          stroke-miterlimit="10" stroke-width="2"/>
  </g>
  <line x1="258.96" y1="93.19" x2="298.74" y2="93.19" fill="none" stroke="#fff" stroke-linecap="round"
        stroke-miterlimit="10" stroke-width="2"/>
  <g>
    <path d="M278.75,82.91H251.39a12.4,12.4,0,1,0-24.8,0H208.65" fill="none" stroke="#fff" stroke-linecap="round"
          stroke-miterlimit="10" stroke-width="2"/>
    <line x1="287.01" y1="82.91" x2="309.21" y2="82.91" fill="none" stroke="#fff" stroke-linecap="round"
          stroke-miterlimit="10" stroke-width="2"/>
  </g>
  <g>

    <path d="M23.25 1.49001H1.05" stroke="white" stroke-width="2" stroke-miterlimit="10" stroke-linecap="round">
      <animate dur="2s" repeatCount="indefinite"
               calcMode="paced"
               attributeName="d"
               values="M36 1L1 1;M9 0.999999L1 1">

      </animate>
    </path>
  </g>
  <g>
    <line x1="106.25" y1="201.23" x2="84.05" y2="201.23" fill="none" stroke="#fff" stroke-linecap="round"
          stroke-miterlimit="10" stroke-width="2"/>
  </g>
  <g>
    <line x1="106.25" y1="190.98" x2="68.77" y2="190.98" fill="none" stroke="#fff" stroke-linecap="round"
          stroke-miterlimit="10" stroke-width="2"/>
  </g>
  <g>
    <path
      d="M289.94,327.88H244.88L212.8,296.58a1.89,1.89,0,0,0-2.44,0l-10.2,10.23a1.72,1.72,0,0,1-2.25,0l-19-20.17a2.4,2.4,0,0,0-3.1,0l-26.42,25.64a1.71,1.71,0,0,1-2.25,0l-2.63-2.92a1.71,1.71,0,0,0-2.31,0L124.63,329H80.78"
      fill="none" stroke="#fff" stroke-linecap="round" stroke-miterlimit="10" stroke-width="2"/>
    <path d="M289.94,328H200.15c-0.86,0-1.56,0-2.25,0h-19c-1.5,0-2.23,0-3.1,0h-32.3c-1.09,0-1.66,0-2.31,0H80.78"
          fill="none" stroke="#fff" stroke-linecap="round" stroke-miterlimit="10" stroke-width="2"/>
  </g>
</svg>
